<svg xmlns="http://www.w3.org/2000/svg" width="1200" height="900" viewBox="0 0 1200 900" role="img" aria-labelledby="title desc">
  <title id="title">Gaming product placeholder</title>
  <desc id="desc">Premium blue technology placeholder for gaming products.</desc>
  <rect width="1200" height="900" fill="#f5f9ff"/>
  <circle cx="1000" cy="210" r="240" fill="#c7e8ff"/>
  <circle cx="170" cy="690" r="250" fill="#d7eaff"/>
  <path d="M330 350c55-70 143-82 220-38h100c77-44 165-32 220 38 53 68 82 208 47 273-26 49-82 55-134 17l-88-64H505l-88 64c-52 38-108 32-134-17-35-65-6-205 47-273z" fill="#1f2a44"/>
  <circle cx="785" cy="438" r="44" fill="#4f9ed8"/>
  <circle cx="870" cy="502" r="34" fill="#e5f2ff"/>
  <rect x="365" y="465" width="150" height="36" rx="18" fill="#e5f2ff"/>
  <rect x="422" y="408" width="36" height="150" rx="18" fill="#e5f2ff"/>
</svg>
